<svg width="128" height="128" viewBox="0 0 128 128" fill="none" xmlns="http://www.w3.org/2000/svg">
<g clip-path="url(#clip0_168_51)">
<rect width="128" height="128" rx="10" fill="#0A7940"/>
<g filter="url(#filter0_d_168_51)">
<path d="M46.6942 96.5238C46.6942 100.81 45.8885 104.492 44.277 107.571C42.6971 110.619 40.4221 112.952 37.4519 114.571C34.5133 116.19 31.0376 117 27.0247 117C24.1177 117 21.5899 116.619 19.4412 115.857C17.2926 115.127 15.5863 114.333 14.3224 113.476C13.3995 112.827 12.7377 112.297 12.3371 111.884C12.1058 111.646 12.0786 111.294 12.2098 110.989L16.6007 100.787C16.91 100.068 17.924 99.9429 18.4824 100.491C18.6205 100.627 18.7663 100.765 18.9199 100.905C19.615 101.54 20.4682 102.095 21.4793 102.571C22.4904 103.016 23.6279 103.238 24.8918 103.238C26.3453 103.238 27.6408 102.937 28.7783 102.333C29.9159 101.73 30.8164 100.73 31.4799 99.3333C32.1751 97.9365 32.5227 96.0794 32.5227 93.7619V67.5575C32.5227 67.0052 32.075 66.5575 31.5227 66.5575H13.4655C12.7611 66.5575 12.2775 65.8488 12.5343 65.1929L17.0596 53.6354C17.2097 53.2522 17.5792 53 17.9908 53H32.5227H45.6942C46.2465 53 46.6942 53.4477 46.6942 54V96.5238Z" fill="white"/>
<path d="M115 53C115.552 53 116 53.4477 116 54V114.857C116 115.41 115.552 115.857 115 115.857H102.876C102.324 115.857 101.876 115.41 101.876 114.857V78.8572C101.876 78.1898 100.948 78.0235 100.717 78.6493L100.075 80.381L89.7855 110.136C89.6462 110.539 89.2667 110.81 88.8404 110.81H76.3789C75.952 110.81 75.5722 110.539 75.4333 110.135L65.1909 80.381L64.5696 78.6591C64.3477 78.0442 63.4372 78.2035 63.4372 78.8572V114.857C63.4372 115.41 62.9895 115.857 62.4372 115.857H50.2657C49.7134 115.857 49.2657 115.41 49.2657 114.857V54C49.2657 53.4477 49.7134 53 50.2657 53H68.4607C68.8867 53 69.2658 53.2698 69.4055 53.6721L81.2381 87.7661C81.2565 87.8193 81.2704 87.874 81.2796 87.9295C81.4669 89.0586 83.1732 89.0328 83.4732 87.9283C83.4809 87.8998 83.4886 87.8724 83.4962 87.846C87.4019 74.3083 94.4326 57.0296 95.8431 53.605C95.9968 53.232 96.3562 53 96.7597 53H115Z" fill="white"/>
</g>
</g>
<defs>
<filter id="filter0_d_168_51" x="4.43129" y="45.3" width="119.269" height="79.4" filterUnits="userSpaceOnUse" color-interpolation-filters="sRGB">
<feFlood flood-opacity="0" result="BackgroundImageFix"/>
<feColorMatrix in="SourceAlpha" type="matrix" values="0 0 0 0 0 0 0 0 0 0 0 0 0 0 0 0 0 0 127 0" result="hardAlpha"/>
<feOffset/>
<feGaussianBlur stdDeviation="3.85"/>
<feComposite in2="hardAlpha" operator="out"/>
<feColorMatrix type="matrix" values="0 0 0 0 0 0 0 0 0 0 0 0 0 0 0 0 0 0 0.25 0"/>
<feBlend mode="normal" in2="BackgroundImageFix" result="effect1_dropShadow_168_51"/>
<feBlend mode="normal" in="SourceGraphic" in2="effect1_dropShadow_168_51" result="shape"/>
</filter>
<clipPath id="clip0_168_51">
<rect width="128" height="128" fill="white"/>
</clipPath>
</defs>
</svg>
